<svg width="24" height="24" viewBox="0 0 24 24" fill="none" xmlns="http://www.w3.org/2000/svg">
  <path d="M12 2C6.48 2 2 6.48 2 12C2 17.52 6.48 22 12 22C17.52 22 22 17.52 22 12C22 6.48 17.52 2 12 2Z" fill="#FF4500"/>
  <path d="M18 11C18 9.34 16.66 8 15 8C14.21 8 13.5 8.31 12.97 8.82C12.21 8.31 11.25 8 10.24 8C8.96 8 7.81 8.53 7 9.36V8H5V14.63C5 16.53 6.47 18 8.37 18H15.63C17.53 18 19 16.53 19 14.63V11H18Z" fill="white"/>
  <circle cx="8" cy="13" r="1.5" fill="black"/>
  <circle cx="16" cy="13" r="1.5" fill="black"/>
  <path d="M10 16C10 16.55 10.45 17 11 17H13C13.55 17 14 16.55 14 16V15H10V16Z" fill="black"/>
</svg>
